<?xml version="1.0" encoding="utf-8"?>
<!-- Generator: Adobe Illustrator 28.1.0, SVG Export Plug-In . SVG Version: 6.00 Build 0)  -->
<svg version="1.1" id="Layer_1" xmlns="http://www.w3.org/2000/svg" xmlns:xlink="http://www.w3.org/1999/xlink" x="0px" y="0px"
	 viewBox="0 0 19.2 19.1" style="enable-background:new 0 0 19.2 19.1;" xml:space="preserve">
<style type="text/css">
	.st0{fill:#FFFFFF;stroke:#F9F7F7;stroke-width:0.25;stroke-miterlimit:10;}
</style>
<path class="st0" d="M18.4,12.7C18.3,12.7,18.3,12.7,18.4,12.7L18.4,12.7c0-0.3-0.1-0.5-0.1-0.7c-0.2-1-0.6-1.8-1.2-2.6
	c-0.3-0.3-0.6-0.6-1-0.9c-0.5-0.3-0.9-0.6-1.4-0.9c-1.1-0.7-2.3-1.4-3.5-2c-1-0.5-1.9-1-2.9-1.5C7.9,3.9,7.5,3.7,7.1,3.5
	C7,3.5,6.9,3.4,6.7,3.4c-0.2,0-0.4,0-0.6,0C6,3.4,5.9,3.5,5.8,3.6l-0.1,0l0,0l0,0c0,0,0,0,0,0c0.4-1.1,1.1-2,2-2.7
	c0.5-0.4,1-0.6,1.6-0.8c0.2,0,0.3,0,0.5,0c0.2,0,0.4,0.1,0.6,0.2C11,0.5,11.5,0.8,12,1c1.5,0.8,3,1.6,4.5,2.6c0.3,0.2,0.7,0.5,1,0.7
	c0.1,0.1,0.3,0.2,0.4,0.4C18,4.7,18.1,4.9,18.2,5c0.1,0.3,0.1,0.6,0.2,0.9c0.1,1.1,0.2,2.2,0.2,3.3c0,0.8,0,1.6,0,2.4
	c0,0.3,0,0.5,0,0.8L18.4,12.7C18.4,12.7,18.4,12.7,18.4,12.7C18.4,12.7,18.4,12.7,18.4,12.7z M11.4,18.4c-0.4,0.2-0.8,0.4-1.2,0.5
	c0.1-0.7,0-1.5-0.3-2.2C9.6,16,9,15.4,8.3,15c0,0,3-1.6,4.1-2.2c1-0.6,1.9-1.1,2.9-1.8c0.3-0.2,0.5-0.3,0.7-0.5
	c0.1-0.1,0.3-0.2,0.4-0.3c0.2-0.2,0.3-0.4,0.3-0.6c0-0.1,0-0.1,0-0.2l0,0c0,0,0-0.1,0-0.1l0-0.1c0,0,0,0,0,0c0,0,0,0,0,0
	c0.6,0.7,1,1.5,1.2,2.3c0.1,0.4,0.2,0.9,0.2,1.3c0,0.4,0,0.8-0.1,1.1c0,0.1-0.1,0.2-0.2,0.3c-0.1,0.1-0.2,0.2-0.3,0.3
	c-0.2,0.2-0.5,0.4-0.8,0.6c-0.8,0.5-1.5,1-2.3,1.4C13.5,17.3,12.5,17.9,11.4,18.4z M5,18.7l1.6-1.9c1.3,0.8,1.1,2,1.1,2.3l0,0H5.2
	C5,19,4.9,18.8,5,18.7L5,18.7z M5.3,13.3c0,0.2-0.3,0.3-0.4,0.1l-1.8-2.1c-0.1-0.1-0.2-0.1-0.3,0c0,0,0,0,0,0l-1.7,2.1
	c-0.1,0.2-0.4,0.1-0.4-0.1c0-1.3-0.1-4.2,0-5.2c0-0.5,0-1.1,0.1-1.6c0-0.4,0.1-0.7,0.1-1.1C1,5.3,1,5.1,1,5c0-0.1,0.1-0.3,0.2-0.4
	c0.2-0.2,0.3-0.3,0.5-0.4c0.5-0.3,0.9-0.7,1.4-1c1.4-0.9,2.9-1.7,4.4-2.5l0.3-0.1l0.1,0c0,0,0,0,0,0l0,0c0,0,0,0.1-0.1,0.1l0,0
	C7.1,1.2,6.5,1.9,6,2.8c-0.3,0.5-0.4,1-0.5,1.5c0,0.2-0.1,0.4-0.1,0.6C5.3,5.7,5.3,6.5,5.3,7.2c0,1.2,0,2.5,0,3.7
	C5.2,11.3,5.3,12.5,5.3,13.3L5.3,13.3z"/>
</svg>
