<svg xmlns="http://www.w3.org/2000/svg" width="24" height="24" fill="none" viewBox="0 0 24 24"><path fill="#FDC13C" fill-rule="evenodd" d="M20.98 6.183h1.291a.729.729 0 0 1 0 1.458h-1.29v1.511a.766.766 0 1 1-1.532 0V7.641h-1.296a.729.729 0 0 1 0-1.458h1.296V4.766a.766.766 0 1 1 1.532 0v1.417ZM1.25 8.788a2.967 2.967 0 0 1 2.967-2.967h10.337a.75.75 0 0 1 0 1.5H4.217c-.81 0-1.467.657-1.467 1.467v7.777c0 .81.657 1.467 1.467 1.467h14.766c.81 0 1.468-.657 1.468-1.467v-4.772a.75.75 0 0 1 1.5 0v4.772a2.967 2.967 0 0 1-2.968 2.967H4.217a2.967 2.967 0 0 1-2.967-2.967V8.788Zm13.104 4.768a.85.85 0 0 1-.125.467c-.063.1-.146.15-.25.15-.1 0-.176-.03-.227-.088-.079-.088-.108-.217-.087-.386a.497.497 0 0 0-.107-.379.508.508 0 0 0-.345-.195.497.497 0 0 0-.379.108.508.508 0 0 0-.195.344c-.016.142-.015.282.004.421a.316.316 0 0 1-.115.129.227.227 0 0 1-.115.028.362.362 0 0 1-.271-.118c-.1-.112-.15-.295-.15-.55 0-.563.334-1.268 1.002-2.115a.538.538 0 0 0 .1-.223c.274.272.508.55.7.835.373.557.56 1.08.56 1.572Zm1.03 0c0-.702-.245-1.417-.734-2.146-.455-.677-1.066-1.287-1.833-1.83a.493.493 0 0 0-.383-.09.5.5 0 0 0-.334.213.481.481 0 0 0-.087.382.488.488 0 0 0 .209.334c.065.046.13.095.195.146a.507.507 0 0 0-.233.167c-.817 1.034-1.225 1.953-1.225 2.755 0 .313.053.591.16.835.079.183.186.34.32.473.27.26.594.39.974.39.283 0 .533-.082.751-.244.232.176.504.264.814.264.485 0 .86-.21 1.124-.633.188-.299.281-.637.281-1.015Zm-5.756 1.715a.483.483 0 0 0 .359.16H10a.499.499 0 0 0 .361-.146.503.503 0 0 0 .157-.355 15.276 15.276 0 0 0-.14-2.39c-.145-1.073-.376-1.882-.691-2.427a.488.488 0 0 0-.313-.243.49.49 0 0 0-.39.052.502.502 0 0 0-.24.313.498.498 0 0 0 .049.39c.243.424.43 1.1.56 2.027.106.789.15 1.539.132 2.25a.51.51 0 0 0 .142.37Z" clip-rule="evenodd"/></svg>