<?xml version="1.0" encoding="utf-8"?>
<!-- Generator: Adobe Illustrator 28.1.0, SVG Export Plug-In . SVG Version: 6.00 Build 0)  -->
<svg version="1.1" id="Layer_1" xmlns="http://www.w3.org/2000/svg" xmlns:xlink="http://www.w3.org/1999/xlink" x="0px" y="0px"
	 viewBox="0 0 12.3 15.4" style="enable-background:new 0 0 12.3 15.4;" xml:space="preserve">
<style type="text/css">
	.st0{fill:#FDC13C;stroke:#000000;stroke-width:0.25;stroke-miterlimit:10;}
</style>
<path class="st0" d="M10.4,6.9c-0.2-0.2-0.3-0.4-0.6-0.5c-0.5-0.5-1-0.8-1.5-1.2c-0.8-0.8-1.1-2-1-3.1C7.4,1.7,7,1.3,6.7,1.5
	C6.3,1.5,6,1.7,5.8,1.9C3.8,3.5,3.1,6.1,4,8.5c0,0.1,0.1,0.2,0.1,0.2C4.1,8.9,4,9,3.8,9C3.7,9.1,3.5,9,3.4,8.9
	c-0.1,0-0.1-0.1-0.1-0.2C3,8.2,2.7,7.7,2.7,7c-0.2-0.4-0.8-0.8-1-0.3C1.2,7.7,1,8.5,1,9.3c0.1,0.3,0.1,0.7,0.2,1
	c0.1,0.4,0.3,0.9,0.5,1.2c0.7,1.2,2.2,2.2,3.6,2.3c1.7,0.3,3.3,0,4.5-1c1.4-1.2,1.9-3.1,1-4.8l-0.1-0.2C10.7,7.6,10.4,6.9,10.4,6.9z
	 M8,11.5c-0.2,0.2-0.6,0.3-0.8,0.4C6.5,12.1,6,12,5.5,11.7c-0.2-0.2-0.2-0.4,0.1-0.6c0.5-0.2,0.8-0.7,1-1.4c0.1-0.6-0.1-1-0.2-1.7
	C6.3,8,6.3,7.7,6.3,7.4c0-0.2,0.3-0.3,0.5-0.1c0,0.1,0.1,0.1,0.1,0.1c0.6,0.7,1.5,1,1.7,2.1c0,0.1,0.1,0.2,0.1,0.3
	C8.7,10.6,8.4,11.2,8,11.5z"/>
</svg>
