<svg xmlns="http://www.w3.org/2000/svg" viewBox="4 2.5 16 19"><rect/><path d="M11.99 21.488c.175.012.35.012.524 0a.915.915 0 0 0 .475-.2 3.938 3.938 0 0 0 1.167-1.708c.069-.19.148-.42.227-.67.158-.44.336-.999.564-1.538h.01a9.559 9.559 0 0 1 2.106-2.767l2.106-.35a.986.986 0 0 0 .6-.344 1 1 0 0 0 .23-.655V5.173a1.005 1.005 0 0 0-.242-.664.986.986 0 0 0-.617-.335l-2.037-.26a3.92 3.92 0 0 1-.782-.17l-.375-.1a17.59 17.59 0 0 0-4.628-1.138H9.22a3.714 3.714 0 0 0-1.618.273c-.513.21-.974.534-1.348.946a3.56 3.56 0 0 0-.752 2.278A3.38 3.38 0 0 0 4.95 7.12a3.481 3.481 0 0 0-.1 1.38 3.233 3.233 0 0 0-.415 1.718c.001.211.025.422.07.629A3.413 3.413 0 0 0 4 12.676a3.085 3.085 0 0 0 .92 2.198 3.064 3.064 0 0 0 2.185.91h1.978l-.158.419a6.377 6.377 0 0 0-.129 3.237 3.14 3.14 0 0 0 1.254 1.57 3.09 3.09 0 0 0 1.94.478Zm1.127-4.905c-.247.61-.445 1.179-.603 1.658l-.207.61c-.086.23-.206.445-.356.639-.416 0-1.128-.1-1.286-.63a4.31 4.31 0 0 1 .09-1.998l.652-1.788a1.008 1.008 0 0 0-.119-.92.992.992 0 0 0-.82-.419H7.104a1.03 1.03 0 0 1-.78-.34.998.998 0 0 1-.337-.769 1.392 1.392 0 0 1 .356-.999 1.003 1.003 0 0 0 .198-.999 1.41 1.41 0 0 1-.119-.5c-.02-.323.079-.643.277-.899a1.004 1.004 0 0 0 .158-.879 1.453 1.453 0 0 1 0-.769 1.31 1.31 0 0 1 .336-.55 1 1 0 0 0 .307-.809 1.692 1.692 0 0 1 .306-1.219 1.807 1.807 0 0 1 1.424-.51h2.087c1.386.166 2.748.501 4.054 1l.307.11a6.47 6.47 0 0 0 1.157.26l1.166.14v6.334l-1.344.22c-1.385.23-3.264 3.276-3.55 3.996l.01.03Z"/></svg>