<svg xmlns="http://www.w3.org/2000/svg" viewBox="4.38 2.992 15.2 18.024"><path d="M12 21h-.61l-.11-.08a3.66 3.66 0 0 1-1-1.49c-.07-.19-.15-.42-.23-.66-.16-.45-.34-1-.58-1.57A9 9 0 0 0 7 14.09l-2.62-.42V4.73l2.49-.31a5 5 0 0 0 .89-.2l.31-.1A17.22 17.22 0 0 1 12.68 3h2.12a3.26 3.26 0 0 1 2.58 1 3 3 0 0 1 .67 2.13 2.65 2.65 0 0 1 .59 1.08 2.93 2.93 0 0 1 .06 1.34 2.78 2.78 0 0 1 .44 1.61 2.58 2.58 0 0 1-.12.73 2.83 2.83 0 0 1 .56 1.74 2.48 2.48 0 0 1-.79 1.84 2.56 2.56 0 0 1-1.85.77h-2.68l.41 1.1a5.68 5.68 0 0 1 .12 2.93A2.66 2.66 0 0 1 12 21Z"/></svg>