<svg xmlns="http://www.w3.org/2000/svg" viewBox="4 2.5 16 19"><path d="M11.98 21.483h.641l.116-.084a3.858 3.858 0 0 0 1.053-1.571c.073-.2.158-.443.242-.696.168-.474.358-1.054.61-1.655a9.485 9.485 0 0 1 2.6-3.278L20 13.756V4.332l-2.621-.327a5.256 5.256 0 0 1-.937-.21l-.326-.106a18.105 18.105 0 0 0-4.853-1.18H9.032a3.427 3.427 0 0 0-2.716 1.053 3.166 3.166 0 0 0-.705 2.246 2.795 2.795 0 0 0-.621 1.138c-.13.46-.152.943-.063 1.413a2.934 2.934 0 0 0-.463 1.697c.005.261.047.52.126.77A2.986 2.986 0 0 0 4 12.66a2.618 2.618 0 0 0 .832 1.94 2.694 2.694 0 0 0 1.947.811H9.6l-.431 1.16a5.997 5.997 0 0 0-.127 3.088 2.803 2.803 0 0 0 2.937 1.824Z"/></svg>