<?xml version="1.0" encoding="utf-8"?>
<!-- Generator: Adobe Illustrator 28.1.0, SVG Export Plug-In . SVG Version: 6.00 Build 0)  -->
<svg version="1.1" id="Layer_1" xmlns="http://www.w3.org/2000/svg" xmlns:xlink="http://www.w3.org/1999/xlink" x="0px" y="0px"
	 viewBox="0 0 20.6 22.3" style="enable-background:new 0 0 20.6 22.3;" xml:space="preserve">
<style type="text/css">
	.st0{fill:#858585;}
</style>
<path class="st0" d="M20.1,8.3H4.5l15-4c0.3-0.1,0.4-0.3,0.4-0.6c0,0,0,0,0,0l-0.4-1.5c-0.4-1.6-2.1-2.6-3.7-2.1c0,0,0,0-0.1,0
	L2.2,3.7C0.6,4.2-0.3,5.8,0.1,7.4c0,0,0.4,1.6,0.5,2v9.8c0,1.7,1.3,3.1,3,3.1h14c1.7,0,3-1.4,3-3.1V8.8C20.6,8.5,20.4,8.3,20.1,8.3z
	 M18.6,9.3l-3.2,3h-2.1l3.2-3H18.6z M13.3,9.3l-3.2,3H8l3.2-3H13.3z M5.8,9.3H8l-3.2,3H2.6L5.8,9.3z M13.8,1.6l3.9,2.1l-2,0.6
	l-3.9-2.1L13.8,1.6z M8.7,3l3.9,2.1l-2.1,0.6L6.6,3.6L8.7,3z M1.5,5l2.1-0.6l3.9,2.1L5.4,7L1.5,5z M1.6,8.8c0-0.6,0.4-1,1-1
	s1,0.4,1,1s-0.4,1-1,1S1.6,9.4,1.6,8.8z"/>
</svg>
