<?xml version="1.0" encoding="utf-8"?>
<!-- Generator: Adobe Illustrator 28.1.0, SVG Export Plug-In . SVG Version: 6.00 Build 0)  -->
<svg version="1.1" id="Layer_1" xmlns="http://www.w3.org/2000/svg" xmlns:xlink="http://www.w3.org/1999/xlink" x="0px" y="0px"
	 viewBox="0 0 24 10" style="enable-background:new 0 0 24 10;" xml:space="preserve">
<style type="text/css">
	.st0{fill:#FFFFFF;}
</style>
<g>
	<path class="st0" d="M0,0h2.2v10H0V0z"/>
	<path class="st0" d="M7.1,4.6L6.7,2.1C6.6,1.3,6.5,0.6,6.4,0H3.3v10h2.2V3.4L6.4,10h1.5l0.9-6.8V10h2.2V0H7.7L7.1,4.6z M24,3.8
		c0-0.2-0.1-0.4-0.2-0.5c-0.1-0.2-0.3-0.3-0.6-0.4c-0.3-0.1-0.6-0.2-0.9-0.2c-0.3,0-0.6,0.1-0.9,0.2C21.2,3,21,3.2,20.8,3.4V0h-2.2
		v10h2.2V9.2c0.2,0.2,0.4,0.4,0.7,0.5c0.3,0.1,0.6,0.2,0.9,0.2c0.4,0,0.7-0.1,1-0.3c0.3-0.2,0.5-0.4,0.5-0.7C24,8.5,24,8.1,24,7.7V5
		C24,4.6,24,4.2,24,3.8z M22.1,8c0,0.3-0.2,0.6-0.5,0.6c-0.3,0-0.6-0.2-0.6-0.5c0,0,0-0.1,0-0.1V4.6c0-0.3,0.3-0.5,0.6-0.5
		c0.2,0,0.4,0.2,0.5,0.5V8z M17,0.8c-0.3-0.3-0.6-0.5-1-0.6C15.3,0.1,14.5,0,13.8,0H12v10h2.9c0.4,0,0.9,0,1.3-0.1
		c0.3-0.1,0.5-0.3,0.7-0.5c0.2-0.2,0.3-0.4,0.4-0.7c0.1-0.6,0.1-1.2,0.1-1.8V3.5c0-0.6,0-1.2-0.1-1.9C17.3,1.3,17.2,1,17,0.8z
		 M15.3,7.6c0,0.3-0.2,0.5-0.5,0.6h-0.6V1.8h0.6c0.3,0,0.5,0.3,0.5,0.6V7.6z"/>
</g>
</svg>
