<svg xmlns="http://www.w3.org/2000/svg" viewBox="0 6.8 24.018 10.032"><g class="b"><path d="M0 6.83h2.18v9.99H0z"/><path d="m7.08 11.42-.36-2.5c-.1-.8-.2-1.49-.3-2.09H3.27v10h2.18v-6.66l.92 6.65h1.49L8.73 10v6.8h2.17v-10H7.66ZM24 10.64a1.26 1.26 0 0 0-.23-.54 1.23 1.23 0 0 0-.56-.43 2.08 2.08 0 0 0-.87-.16 2.4 2.4 0 0 0-.9.17 2.06 2.06 0 0 0-.67.52V6.83h-2.22v10h2.18V16a2 2 0 0 0 .67.55 2.3 2.3 0 0 0 .9.18 1.76 1.76 0 0 0 1-.3 1.35 1.35 0 0 0 .55-.74 5 5 0 0 0 .15-1.24v-2.68a9 9 0 0 0 0-1.13Zm-1.91 4.15a.55.55 0 1 1-1.09 0v-3.4a.55.55 0 0 1 1.09 0ZM17 7.56A1.8 1.8 0 0 0 16 7a9.53 9.53 0 0 0-2.24-.17H12v10h2.91a6.79 6.79 0 0 0 1.29-.09 1.93 1.93 0 0 0 .72-.53 1.33 1.33 0 0 0 .41-.7 8.14 8.14 0 0 0 .12-1.76v-3.46a14.47 14.47 0 0 0-.08-1.87 1.89 1.89 0 0 0-.37-.86Zm-1.7 6.84a.55.55 0 0 1-.54.55h-.55V8.6h.55a.55.55 0 0 1 .54.55Z" class="c"/></g></svg>