<svg xmlns="http://www.w3.org/2000/svg" viewBox="2.811 1.365 18.393 21.138"><path d="M3.81 7.72a1 1 0 0 0 1-.73 7.6 7.6 0 0 1 2.42-3.78 1 1 0 0 0 .14-1.4A1 1 0 0 0 6 1.67a9.46 9.46 0 0 0-3.15 4.78 1 1 0 0 0 .69 1.24Zm17.34-1.27A9.43 9.43 0 0 0 18 1.6a1 1 0 1 0-1.3 1.56A7.54 7.54 0 0 1 19.23 7a1 1 0 0 0 1 .73h.27a1 1 0 0 0 .65-1.28ZM18.5 15.2V9a6.5 6.5 0 0 0-13 0v6.2L3.67 18a1 1 0 0 0 0 1 1 1 0 0 0 .88.53h4a3.5 3.5 0 0 0 6.92 0h4a1 1 0 0 0 .88-.53 1 1 0 0 0-.05-1ZM12 20.5a1.5 1.5 0 0 1-1.43-1h2.86a1.49 1.49 0 0 1-1.43 1Zm2.5-3H6.37l1-1.45a1 1 0 0 0 .17-.55V9a4.5 4.5 0 0 1 9 0v6.5a1 1 0 0 0 .17.55l1 1.45Z"/></svg>