<svg xmlns="http://www.w3.org/2000/svg" viewBox="3.97 2.498 16.13 19.002"><path d="M12.68 21.5A17.94 17.94 0 0 1 8 20.36l-.31-.11a4 4 0 0 0-.79-.17l-2.06-.26a1 1 0 0 1-.87-1v-8.07a1 1 0 0 1 .84-1l2.13-.35A9.58 9.58 0 0 0 9 6.65c.23-.57.41-1.1.57-1.54.08-.25.16-.48.23-.67A3.94 3.94 0 0 1 11 2.73a.93.93 0 0 1 .48-.2c1.07-.14 3.24.11 3.79 2.05a6.32 6.32 0 0 1-.13 3.24l-.14.42h1.95a3.11 3.11 0 0 1 2.22.91 3.06 3.06 0 0 1 .93 2.2 3.39 3.39 0 0 1-.51 1.83 3.07 3.07 0 0 1 .07.65 3.18 3.18 0 0 1-.42 1.7 3.52 3.52 0 0 1-.09 1.36 3.59 3.59 0 0 1-.59 1.11 3.47 3.47 0 0 1-.79 2.26 3.75 3.75 0 0 1-2.95 1.23ZM5.92 18l1.18.14a6.6 6.6 0 0 1 1.17.26l.31.11a17.34 17.34 0 0 0 4.1 1h2.12a1.82 1.82 0 0 0 1.44-.51 1.68 1.68 0 0 0 .31-1.26 1 1 0 0 1 .31-.81 1.24 1.24 0 0 0 .34-.58 1.33 1.33 0 0 0 0-.74 1 1 0 0 1 .16-.88 1.3 1.3 0 0 0 .28-.87 1.4 1.4 0 0 0-.12-.53 1 1 0 0 1 .2-1 1.38 1.38 0 0 0 .36-1 1 1 0 0 0-.34-.77 1.06 1.06 0 0 0-.8-.34h-3.39a1 1 0 0 1-.83-.42 1 1 0 0 1-.12-.92l.66-1.79a4.27 4.27 0 0 0 .09-2c-.15-.53-.88-.62-1.3-.63a2.41 2.41 0 0 0-.36.64l-.21.61c-.16.48-.36 1-.61 1.66s-2.19 3.75-3.59 4l-1.36.22ZM7 9.41Z"/></svg>