<svg xmlns="http://www.w3.org/2000/svg" viewBox="4.42 2.975 15.16 18.033"><path d="M12.68 21a17.22 17.22 0 0 1-4.57-1.12l-.31-.1a5.11 5.11 0 0 0-.88-.2l-2.5-.31v-8.94l2.63-.42a9.13 9.13 0 0 0 2.43-3.07c.24-.58.42-1.12.58-1.57.08-.24.16-.47.23-.66a3.66 3.66 0 0 1 1-1.49l.12-.12h.14c.91-.11 2.78.08 3.24 1.7a5.68 5.68 0 0 1-.12 2.93l-.41 1.1h2.68a2.56 2.56 0 0 1 1.85.77 2.48 2.48 0 0 1 .79 1.84 2.83 2.83 0 0 1-.58 1.73 2.64 2.64 0 0 1 .12.74 2.77 2.77 0 0 1-.44 1.6 2.87 2.87 0 0 1-.05 1.33 2.76 2.76 0 0 1-.6 1.09 3 3 0 0 1-.64 2.17 3.27 3.27 0 0 1-2.58 1Z"/></svg>