<?xml version="1.0" encoding="utf-8"?>
<!-- Generator: Adobe Illustrator 28.1.0, SVG Export Plug-In . SVG Version: 6.00 Build 0)  -->
<svg version="1.1" id="Layer_1" xmlns="http://www.w3.org/2000/svg" xmlns:xlink="http://www.w3.org/1999/xlink" x="0px" y="0px"
	 viewBox="0 0 20 16" style="enable-background:new 0 0 20 16;" xml:space="preserve">
<style type="text/css">
	.st0{fill:#FFFFFF;stroke:#FFFFFF;stroke-width:0.25;stroke-miterlimit:10;}
</style>
<path class="st0" d="M3,16h14c1.7,0,3-1.3,3-3V3c0-1.7-1.3-3-3-3H3C1.3,0,0,1.3,0,3v10C0,14.7,1.3,16,3,16z M2,3c0-0.6,0.4-1,1-1h14
	c0.6,0,1,0.4,1,1v10c0,0.6-0.4,1-1,1H3c-0.6,0-1-0.4-1-1V3z"/>
<path class="st0" d="M9,11.2L12.4,9c0.6-0.4,0.7-1.1,0.4-1.7c-0.1-0.1-0.2-0.3-0.4-0.4L9,4.7C8.4,4.3,7.6,4.5,7.3,5.1
	C7.1,5.3,7.1,5.5,7.1,5.8v4.4c0,0.7,0.6,1.3,1.2,1.3C8.6,11.4,8.8,11.4,9,11.2z"/>
</svg>
