<?xml version="1.0" encoding="utf-8"?>
<!-- Generator: Adobe Illustrator 28.1.0, SVG Export Plug-In . SVG Version: 6.00 Build 0)  -->
<svg version="1.1" id="Layer_1" xmlns="http://www.w3.org/2000/svg" xmlns:xlink="http://www.w3.org/1999/xlink" x="0px" y="0px"
	 viewBox="0 0 15 19" style="enable-background:new 0 0 15 19;" xml:space="preserve">
<style type="text/css">
	.st0{fill:#FFFFFF;}
</style>
<path class="st0" d="M12,0H3C1.3,0,0,1.3,0,3v15c0,0.3,0.2,0.6,0.4,0.8C0.7,19,1,19,1.3,19L7.5,17l6.2,1.9c0.1,0,0.2,0,0.3,0
	c0.6,0,1-0.4,1-1V3C15,1.3,13.7,0,12,0z M13,16.6L7.8,15C7.6,15,7.4,15,7.2,15L2,16.6V3c0-0.6,0.4-1,1-1h9c0.6,0,1,0.4,1,1V16.6z"/>
</svg>
