<?xml version="1.0" encoding="utf-8"?>
<!-- Generator: Adobe Illustrator 28.1.0, SVG Export Plug-In . SVG Version: 6.00 Build 0)  -->
<svg version="1.1" id="Layer_1" xmlns="http://www.w3.org/2000/svg" xmlns:xlink="http://www.w3.org/1999/xlink" x="0px" y="0px"
	 viewBox="0 0 19.2 19.1" style="enable-background:new 0 0 19.2 19.1;" xml:space="preserve">
<style type="text/css">
	.st0{fill:#FFFFFF;stroke:#000000;stroke-width:0.25;stroke-miterlimit:10;}
</style>
<path class="st0" d="M16.7,2.5C13.6-0.7,8.6-0.8,5.4,2.2C2.4,5.1,2.1,9.8,4.7,13l-4.4,4.4c-0.4,0.4-0.4,1,0,1.4l0,0
	c0.4,0.4,1,0.4,1.4,0l0,0l4.4-4.4c3.4,2.8,8.5,2.2,11.2-1.2C20,10,19.7,5.3,16.7,2.5L16.7,2.5z M15.3,12.4c-2.3,2.3-6.1,2.3-8.5,0
	s-2.3-6.1,0-8.5s6.1-2.3,8.5,0l0,0C17.6,6.2,17.6,10,15.3,12.4z"/>
</svg>
