<?xml version="1.0" encoding="utf-8"?>
<!-- Generator: Adobe Illustrator 28.1.0, SVG Export Plug-In . SVG Version: 6.00 Build 0)  -->
<svg version="1.1" id="Layer_1" xmlns="http://www.w3.org/2000/svg" xmlns:xlink="http://www.w3.org/1999/xlink" x="0px" y="0px"
	 viewBox="0 0 20 20" style="enable-background:new 0 0 20 20;" xml:space="preserve">
<style type="text/css">
	.st0{fill:#858585;}
</style>
<path class="st0" d="M10,0C4.5,0,0,4.5,0,10s4.5,10,10,10s10-4.5,10-10S15.5,0,10,0z M14.2,14.2c-0.4,0.4-1,0.4-1.4,0c0,0,0,0,0,0
	l-3.5-3.5C9.1,10.5,9,10.3,9,10V5c0-0.6,0.4-1,1-1s1,0.4,1,1v4.6l3.2,3.2C14.6,13.2,14.6,13.8,14.2,14.2
	C14.2,14.2,14.2,14.2,14.2,14.2z"/>
</svg>
