<?xml version="1.0" encoding="utf-8"?>
<!-- Generator: Adobe Illustrator 28.1.0, SVG Export Plug-In . SVG Version: 6.00 Build 0)  -->
<svg version="1.1" id="Layer_1" xmlns="http://www.w3.org/2000/svg" xmlns:xlink="http://www.w3.org/1999/xlink" x="0px" y="0px"
	 viewBox="0 0 20.6 20.6" style="enable-background:new 0 0 20.6 20.6;" xml:space="preserve">
<style type="text/css">
	.st0{fill:#858585;}
</style>
<g id="ui-icon-coupon_fill">
	<path class="st0" d="M16.6,7.4L9.9,0.7c-1-1-2.6-1-3.5,0L5.6,1.6C5.4,1.7,5.4,1.9,5.5,2.1C6,3.4,5.5,4.9,4.3,5.5
		c-0.7,0.3-1.5,0.3-2.1,0C1.9,5.4,1.7,5.4,1.6,5.5L0.7,6.4c-1,1-1,2.6,0,3.5c0,0,0,0,0,0l6.7,6.7L16.6,7.4z"/>
	<path class="st0" d="M19.8,10.6l-2.5-2.5l-9.2,9.2l2.5,2.5c1,1,2.6,1,3.5,0l5.7-5.7C20.8,13.2,20.8,11.6,19.8,10.6z"/>
</g>
</svg>
